PathFileType	4	(X/Y/Z)	C:\Users\WrightLab\Desktop\Jo\P4V18.trc
DataRate	CameraRate	NumFrames	NumMarkers	Units	OrigDataRate	OrigDataStartFrame	OrigNumFrames
100.00	100.00	       16	19	mm	100.00	252	       502
Frame#	Time	Headset_Front			Headset_Back			Headset_Left			Headset_Right			Left_Shoulder			Right_Shoulder			Sternum			C7			Left Elbow			Right Elbow			Left Wrist			Right Wrist			Left ASIS			Right ASIS			S2			Left Knee			Right Knee			Left Ankle			Right Ankle			
		X1	Y1	Z1	X2	Y2	Z2	X3	Y3	Z3	X4	Y4	Z4	X5	Y5	Z5	X6	Y6	Z6	X7	Y7	Z7	X8	Y8	Z8	X9	Y9	Z9	X10	Y10	Z10	X11	Y11	Z11	X12	Y12	Z12	X13	Y13	Z13	X14	Y14	Z14	X15	Y15	Z15	X16	Y16	Z16	X17	Y17	Z17	X18	Y18	Z18	X19	Y19	Z19	

252	2.510	-447.91934	1549.96509	9.56679				-580.15692	1671.65222	120.53941				-580.77631	1535.79602	318.78281	-355.21323	1647.46985	78.12266	-486.01801	1468.24011	174.85925	-428.72791	1588.87524	304.08130	-742.91632	1196.93115	381.69855	-61.18354	1390.03430	28.47171	-835.29193	940.35474	224.31178	-71.33276	1392.72754	-275.75613	-574.54810	1040.09473	306.17126	-332.34460	1045.21716	77.03703	-341.56091	1068.90234	339.80411	-536.78528	554.56940	362.47189	-394.68454	592.63940	-18.53576	-401.71033	66.73734	433.77698	-369.31854	108.01727	168.22775	
253	2.520	-451.00500	1547.57886	1.16182				-584.00891	1668.98303	109.91816				-586.28619	1534.88440	309.09943	-312.02823	1546.14722	211.17648	-490.70694	1466.85352	166.12579	-435.00104	1588.59131	296.71243	-749.68793	1196.25745	370.62289	-65.00706	1388.93713	21.54714	-842.39764	941.02588	211.14775	-74.79118	1392.25781	-282.46286	-579.73761	1038.69775	297.70859	-337.04611	1043.70422	69.35332	-347.04083	1067.85852	332.34470	-538.15704	553.04364	357.22513	-399.97562	591.62488	-25.43189	-401.56009	67.41337	433.57483	-388.42383	98.15336	142.12514	
254	2.530	-454.05167	1545.27087	-7.51549				-586.61597	1666.84106	101.43301				-591.66962	1533.21045	299.38425	-362.48300	1643.27966	63.67342	-495.22467	1465.46667	157.26454	-440.42896	1587.48730	287.85995	-757.12549	1195.57849	360.01974	-69.10104	1387.55029	14.97690	-848.92853	942.03949	197.85382	-76.60486	1390.82092	-288.43661	-585.88428	1038.20569	289.67361	-341.87271	1042.41003	61.98351	-353.00876	1066.74109	324.94318	-542.07599	553.74487	353.68365	-405.86002	589.44409	-31.15800	-401.77448	67.84333	433.25601	-407.14633	89.44839	115.99671	
255	2.540	-456.87854	1542.97388	-16.47128				-592.35400	1665.27661	89.57152				-597.08472	1531.86096	289.77090	-366.51767	1641.30225	56.77502	-499.83551	1463.68933	148.61723	-445.46915	1586.31494	278.66556	-763.11639	1194.53552	348.04132	-72.48989	1386.55737	8.50774	-855.21991	942.27594	184.71819	-77.63996	1389.24341	-294.93198	-591.12878	1036.42651	280.31799	-346.98309	1040.59619	54.49419	-358.13235	1066.25012	317.37549	-544.51050	552.80127	348.95361	-411.51120	587.23505	-36.90925	-401.81760	68.01852	432.89108	-426.90131	80.72758	90.30166	
256	2.550	-459.74631	1540.44397	-25.57085				-596.94580	1663.37524	77.94860				-602.81293	1530.66309	280.52841	-325.72647	1543.32104	188.78941	-504.25739	1462.16504	139.14470	-449.22595	1583.62610	268.49643	-770.01740	1193.55200	337.84286	-76.42226	1385.05286	2.26096	-861.33337	942.53503	170.86992	-80.17081	1387.31213	-302.09509	-596.06995	1034.86340	272.55154	-351.15149	1038.47778	46.86850	-364.88699	1064.67188	308.69333	-547.25104	551.73126	344.70636	-416.20682	584.40625	-42.06641	-401.71085	68.15792	432.78070	-445.21133	74.32935	63.60917	
257	2.560	-372.90378	1636.65857	40.50518				-599.85651	1660.38428	69.04754				-607.12933	1529.12036	270.32349	-330.07126	1541.03223	180.62016	-508.83157	1460.25488	129.66214	-455.31760	1583.17041	260.51822	-776.14630	1192.32104	326.44571	-79.14733	1383.62537	-4.11289	-867.48828	943.20508	157.70746	-83.47713	1386.22485	-308.69308	-601.52057	1032.65381	263.39557	-355.61081	1036.22058	38.90802	-370.07175	1062.98682	300.83099	-550.13147	551.29846	339.69006	-420.89450	580.86133	-48.08091	-401.61484	68.15617	432.30219	-462.06308	67.95245	37.91088	
258	2.570	-334.67737	1539.05798	172.22331				-602.48145	1658.22571	59.43597				-612.51392	1527.43945	260.39557	-376.44266	1634.47607	31.97456	-512.56873	1458.18311	120.49134	-459.94434	1581.35095	251.27983	-782.28497	1191.09753	315.62509	-82.77876	1381.89807	-10.71525	-872.73566	943.04767	144.92195	-85.56478	1384.40002	-315.84445	-606.65375	1030.49512	255.78009	-360.23901	1033.28137	30.91233	-376.13620	1061.60156	293.33240	-553.55035	550.81396	334.28867	-425.24850	576.80902	-52.71011	-401.92621	68.83598	432.06400	-479.80331	62.88017	11.43700	
259	2.580	-379.76364	1632.44836	21.97021				-605.82758	1655.79626	49.28106				-616.99139	1525.77771	250.27907	-339.04114	1536.80896	163.57820	-516.48468	1456.46790	111.46104	-464.80981	1579.61462	242.06775	-787.94189	1189.62622	304.08078	-86.00188	1380.15161	-18.08810	-877.95465	942.86505	131.40579	-86.63845	1382.78662	-323.01138	-612.50336	1029.24597	245.39833	-364.30270	1030.22656	22.29759	-382.81100	1059.56995	284.83133	-556.78821	550.07178	329.01218	-429.59412	572.36481	-57.91778	-402.97430	68.47085	432.18127	-497.11716	58.21231	-13.97968	
260	2.590	-382.79562	1630.14404	12.38754				-609.26349	1653.11963	38.69334				-621.32611	1523.85657	240.20020	-343.14233	1534.82825	154.49434	-520.78052	1454.21375	101.83228	-468.84555	1577.42627	232.54170	-793.61505	1188.33020	292.83734	-89.12148	1378.03516	-25.18493	-882.98218	942.69354	118.11150	-88.04284	1380.61084	-330.19339	-618.64191	1027.71130	235.78256	-369.02484	1027.44507	13.78446	-388.15723	1058.60693	276.53943	-559.90479	548.84155	323.73242	-433.40649	568.11389	-62.69333	-403.11996	68.84612	432.05173	-512.36908	55.70764	-38.93479	
261	2.600	-347.54813	1532.64880	145.60263				-612.33966	1651.00049	27.37964				-625.82465	1521.91602	229.85522	-385.72772	1627.80750	3.03577	-524.39325	1452.01428	91.91862	-473.19220	1574.91174	222.42273	-798.92871	1187.08032	281.71286	-92.00542	1376.41052	-33.17824	-887.97815	942.36884	105.29590	-89.03613	1379.11499	-336.71979	-624.18439	1025.51453	225.50455	-373.26932	1024.16284	5.04724	-393.80951	1055.84143	267.77631	-562.59070	547.40820	317.66345	-437.21704	562.88818	-66.85828	-403.47678	69.64553	431.24414	-528.75952	53.07146	-62.11810	
262	2.610	-388.48871	1625.28076	-6.33424				-615.42993	1648.10120	17.61278				-629.95135	1519.92004	219.34435	-350.91101	1530.18555	136.27800	-527.75427	1450.09558	82.11329	-477.28778	1572.74731	212.79010	-803.76971	1185.38440	270.99161	-95.18243	1374.08887	-40.25371	-892.49445	941.64563	92.04720	-90.36569	1377.07458	-344.16556	-628.95715	1023.39789	215.00597	-378.06259	1020.23578	-3.87843	-399.97696	1054.05762	259.03320	-567.27631	547.76440	314.16534	-440.84161	557.88361	-71.72715	-403.85477	70.44459	430.76468	-543.41974	51.96180	-84.33622	
263	2.620	-391.41980	1623.10742	-16.71554				-618.30566	1646.03857	6.83211				-634.21045	1518.02612	209.29814	-354.83096	1527.81018	126.95677	-531.10144	1447.61938	72.14597	-481.53632	1571.42761	203.63889	-809.08081	1183.61206	259.44016	-97.90130	1372.21704	-48.11261	-896.36627	940.47302	79.89280	-92.07558	1375.04688	-351.95135	-636.53180	1021.72064	204.41422	-382.22580	1017.37848	-13.08023	-406.28857	1053.64526	248.68024	-571.63885	547.48804	308.83316	-445.53796	553.12665	-75.76429	-402.39410	72.61243	430.08768	-557.48346	51.53402	-105.99447	
264	2.630	-358.61249	1525.51819	117.62761				-621.14789	1643.81665	-4.39676				-638.46082	1516.12341	199.05582	-394.41141	1620.30957	-23.46140	-535.55688	1445.96130	61.22763	-485.70273	1569.37024	193.68530	-814.15692	1182.14465	247.82632	-100.89443	1370.19873	-55.61082	-900.27679	939.57062	67.55876	-93.18992	1373.38220	-359.69644	-640.79224	1020.52002	194.29572	-386.14264	1013.89758	-22.12528	-411.18677	1050.47131	238.68312	-575.97357	546.45721	302.48291	-450.02753	548.16095	-80.27480	-403.21094	73.93468	429.56506	-571.26270	51.67541	-124.99481	
265	2.640	-396.86087	1617.45276	-30.24241				-623.99689	1641.47766	-14.74053				-642.73822	1514.17249	188.36075	-362.34317	1523.27795	108.00734	-538.34644	1444.13013	51.44328	-489.69458	1566.67249	183.39525	-818.30743	1180.71899	237.16426	-103.50661	1367.59839	-62.72164	-904.33527	938.67963	54.19372	-94.96114	1371.24280	-367.14395	-647.53131	1018.73114	183.35669	-390.40231	1010.57013	-31.24846	-415.92950	1048.29651	230.26181	-580.97894	546.67371	295.41965	-454.60596	544.14014	-85.17133	-403.71097	74.92313	428.92581	-582.54761	51.53079	-141.88152	
266	2.650	-399.51569	1615.32825	-39.59426				-626.66418	1639.52576	-25.24759				-646.26691	1512.22351	177.42233	-366.58658	1520.15930	97.51025	-542.17572	1442.24207	41.31114	-494.13565	1566.41772	171.18489	-822.73657	1178.95703	225.81488	-105.72463	1365.05042	-70.24914	-907.41443	937.24927	42.44736	-96.46744	1368.92517	-375.31207	-652.32007	1016.85901	172.72697	-394.23795	1007.59985	-40.18973	-422.68777	1047.48523	220.05196	-586.15393	545.79034	289.78036	-460.03131	540.14886	-93.00311	-404.78229	77.14788	428.56561	-592.52319	50.41493	-156.59558	
267	2.660	-369.67371	1517.59814	88.39146				-629.38269	1637.90857	-36.82466				-650.40674	1510.61475	166.66852	-402.14328	1613.62415	-50.44228	-545.47925	1440.07788	30.45929	-498.10367	1564.56433	160.78084	-826.73102	1176.62268	214.89807	-108.34572	1362.95581	-79.10861	-911.00433	936.22131	30.35615	-97.78278	1366.90881	-382.68600	-657.14777	1015.60394	161.66032	-397.96747	1004.45972	-49.33382	-426.52499	1044.94995	210.43039	-590.85944	544.33215	281.15829	-465.79782	536.89960	-100.58083	-405.59540	79.18957	428.14590	-603.40619	48.52808	-168.02040	
